<?xml version="1.0" encoding="UTF-8"?>
<svg id="Capa_1" data-name="Capa 1" xmlns="http://www.w3.org/2000/svg" viewBox="0 0 512 512">
  <defs>
    <style>
      .cls-1 {
        fill: #2e005d;
      }
    </style>
  </defs>
  <path class="cls-1" d="M442.26,490.69H69.74c-.7-.26-1.38-.65-2.11-.77-15.2-2.41-27.12-10.09-36.24-22.34-5.67-7.61-8.28-16.43-10.28-25.51,0-111.91,0-223.83,0-335.74,.3-1.01,.68-2.01,.88-3.04,3.71-19.07,14.52-32.61,32-40.87,10.12-4.79,20.98-4.96,31.88-4.72,4.05,.09,8.11,.01,12.48,.01V21.31h36.76V57.48h242.08V21.35h36.76V57.7c7.02,0,13.73-.39,20.38,.11,6.5,.49,13.21,1.01,19.33,3.04,23.05,7.64,37.22,28.46,37.23,53.77,.02,106.38,.01,212.75,0,319.13,0,.92,0,1.83-.03,2.75-.66,18.08-8.2,32.57-22.6,43.54-7.73,5.89-16.72,8.6-26,10.64Zm11.93-296.89H57.81v5.31c0,77.66,0,155.32,0,232.97,0,14.96,6.92,21.91,21.8,21.91,117.58,0,235.16,0,352.75,0,14.9,0,21.82-6.95,21.82-21.89,0-77.66,0-155.32,0-232.97v-5.33ZM57.88,156.46H454.09c0-15.28,.27-30.25-.11-45.2-.21-8.44-6.82-15.68-15.22-16.44-8.13-.73-16.38-.16-25.08-.16v36.05h-36.77v-35.99H134.79v36.09h-36.77v-36.35c-7.98,0-15.47-.27-22.93,.07-9.37,.42-16.9,7.77-17.12,17.14-.34,14.81-.09,29.62-.09,44.78Z"/>
  <path class="cls-1" d="M91.02,268.47v-36.17h36.26v36.17h-36.26Z"/>
  <path class="cls-1" d="M200.62,268.49h-36.13v-36.12h36.13v36.12Z"/>
  <path class="cls-1" d="M237.95,232.23h36.18v36.12h-36.18v-36.12Z"/>
  <path class="cls-1" d="M347.54,232.32v36.13h-36.13v-36.13h36.13Z"/>
  <path class="cls-1" d="M384.78,232.2h36.13v36.12h-36.13v-36.12Z"/>
  <path class="cls-1" d="M91.05,341.75v-36.13h36.13v36.13h-36.13Z"/>
  <path class="cls-1" d="M164.57,305.59h36.13v36.12h-36.13v-36.12Z"/>
  <path class="cls-1" d="M274.14,305.71v36.13h-36.13v-36.13h36.13Z"/>
  <path class="cls-1" d="M347.43,341.87h-36.13v-36.12h36.13v36.12Z"/>
  <path class="cls-1" d="M384.78,305.59h36.13v36.12h-36.13v-36.12Z"/>
  <path class="cls-1" d="M127.34,379.09v36.13h-36.13v-36.13h36.13Z"/>
  <path class="cls-1" d="M200.74,379.1v36.12h-36.13v-36.12h36.13Z"/>
  <path class="cls-1" d="M273.96,415.37h-35.97v-36.29h35.97v36.29Z"/>
  <path class="cls-1" d="M311.37,378.98h36.14v36.12h-36.14v-36.12Z"/>
</svg>