<?xml version="1.0" encoding="UTF-8"?>
<svg id="Capa_1" data-name="Capa 1" xmlns="http://www.w3.org/2000/svg" viewBox="0 0 512 512">
  <defs>
    <style>
      .cls-1 {
        fill: #fff;
      }
    </style>
  </defs>
  <path class="cls-1" d="M154.38,486c-6.77-1.97-13.34-4.32-18.49-9.46-7.05-7.05-10.24-15.64-10.25-25.51-.01-12.73,0-25.45,0-38.18,0-116.77,.02-233.55-.02-350.32,0-14.73,5.44-26.38,19.06-32.85,4.7-2.23,10.34-3.47,15.55-3.49,63.79-.23,127.57-.22,191.36-.11,20.68,.04,34.59,14.68,34.59,35.99,.02,103.9,.01,207.8,.01,311.7,0,23.8-.51,47.62,.16,71.41,.53,18.63-5.81,35-28.9,40.83H154.38Zm-3.48-106.56h209.88V82.92H150.9V379.44ZM256.33,46.47c-14.96,0-29.93-.01-44.89,0-5.58,0-7.59,2.13-7.61,7.93-.02,5.79,2.12,8.18,7.49,8.19,29.78,.02,59.56,.02,89.33,0,5.31,0,7.43-2.46,7.37-8.29-.06-5.64-2.03-7.81-7.26-7.82-14.81-.02-29.63,0-44.44,0Zm-.39,406.36c11.74,0,21.47-9.74,21.36-21.39-.11-11.59-9.54-20.99-21.16-21.09-11.83-.1-21.51,9.37-21.6,21.12-.08,11.64,9.67,21.37,21.4,21.36Z"/>
</svg>