<?xml version="1.0" encoding="UTF-8"?>
<svg id="Capa_1" data-name="Capa 1" xmlns="http://www.w3.org/2000/svg" viewBox="0 0 512 512">
  <defs>
    <style>
      .cls-1 {
        fill: #fff;
      }
    </style>
  </defs>
  <path class="cls-1" d="M182.15,245.35c12.74,10.52,24.91,20.56,37.06,30.62,22.54,18.66,50.72,18.79,73.27,.28,12.32-10.12,24.6-20.31,37.39-30.88,45.38,52.28,90.68,104.46,137.09,157.93-6.16,.69-11.02,1.69-15.89,1.7-48.39,.12-96.78,.07-145.17,.07-81.52,0-163.04,.03-244.56-.06-4.92,0-9.84-.91-16.4-1.56,46.43-53.49,91.67-105.62,137.21-158.11Z"/>
  <path class="cls-1" d="M43.94,109.95c4.05-1.07,7.28-2.16,10.59-2.73,2.54-.44,5.19-.28,7.78-.28,129.36-.01,258.71-.03,388.07,.07,5.56,0,11.11,1.15,18.15,1.93-2.09,2.22-2.77,3.13-3.63,3.84-60.94,50.35-121.86,100.71-182.85,151-16.3,13.44-36.09,13.43-52.29,.05-60.7-50.09-121.36-100.23-182.03-150.36-1.03-.85-1.96-1.82-3.79-3.52Z"/>
  <path class="cls-1" d="M169.85,234.95c-45.61,52.61-90.88,104.82-136.46,157.39-4.78-5.84-6.47-12.14-6.47-19.03,0-21.67,0-43.34,0-65.02,0-55.65,.03-111.31-.04-166.96,0-6.9,.93-13.44,5.39-19.99,45.76,37.78,91.38,75.46,137.58,113.61Z"/>
  <path class="cls-1" d="M479.89,121.35c4.15,6.08,5.22,12.25,5.21,18.79-.05,30.69-.02,61.38-.02,92.07,0,46.47-.04,92.94,.04,139.41,.01,7.32-1.43,14.07-6.38,20.84-45.53-52.51-90.86-104.79-136.55-157.48,45.92-37.89,91.58-75.57,137.7-113.62Z"/>
</svg>