<?xml version="1.0" encoding="UTF-8"?>
<svg id="Capa_1" data-name="Capa 1" xmlns="http://www.w3.org/2000/svg" viewBox="0 0 512 512">
  <defs>
    <style>
      .cls-1 {
        fill: #fff;
      }
    </style>
  </defs>
  <path class="cls-1" d="M177.87,138.83c0-2.37,0-4.12,0-5.87,.05-28.48,.09-56.96,.16-85.44,.04-16.52,9.56-26.01,26.08-26.01,34.83,0,69.66-.01,104.49,0,16.19,0,25.7,9.57,25.69,25.88-.02,28.48-.08,56.96-.13,85.45,0,1.77,0,3.53,0,6,4.63,0,8.96,0,13.28,0,24.64,.05,41.37,16.69,41.38,41.39,.04,76.66,.05,153.31,0,229.97-.02,24.46-16.67,41.1-41.07,41.12-61.19,.04-122.39,.04-183.58,0-24.53-.02-40.97-16.47-40.98-41.08-.04-76.82-.05-153.64,0-230.46,.02-24.44,16.67-40.89,41.2-40.95,4.22-.01,8.44,0,13.49,0Zm109.37-.28h31.05c.09-1.85,.22-3.43,.23-5.02,.06-28.64,.11-57.27,.14-85.91,0-8.12-2.35-10.48-10.41-10.49-34.66-.01-69.31,0-103.97,0-8.32,0-10.61,2.32-10.63,10.79-.06,28.64-.11,57.27-.15,85.91,0,1.56,.15,3.12,.23,4.71h30.99c0-4.96-.05-9.64,.01-14.31,.14-10.04,6.5-16.52,16.46-16.63,9.76-.1,19.52-.09,29.29,0,9.95,.09,16.48,6.54,16.74,16.48,.12,4.69,.02,9.38,.02,14.47Zm-93.77,160.43c0,26.2,0,52.41,0,78.61,0,1.63-.1,3.28,.16,4.87,.58,3.61,2.78,5.85,6.42,6.35,3.81,.52,6.84-.94,8.19-4.62,.7-1.92,.82-4.13,.82-6.22,.04-52.57,.04-105.14,0-157.71,0-1.93-.06-3.95-.62-5.77-1.14-3.7-3.97-5.63-7.78-5.32-4,.32-6.56,2.68-7.08,6.8-.2,1.61-.11,3.25-.11,4.88,0,26.04,0,52.08,0,78.12Zm54.68-.02c0,26.2,0,52.41,0,78.61,0,1.63-.1,3.28,.16,4.87,.64,3.83,2.99,6.09,6.88,6.41,3.86,.32,6.71-1.36,7.89-5.1,.57-1.81,.66-3.84,.66-5.76,.03-52.57,.03-105.14,0-157.71,0-1.93-.07-3.95-.62-5.77-1.13-3.71-3.96-5.64-7.77-5.34-4,.31-6.57,2.65-7.09,6.79-.2,1.61-.12,3.25-.12,4.88,0,26.04,0,52.08,0,78.12Zm54.74-.06c0,26.52,0,53.04,0,79.56,0,6.65,2.75,10.23,7.73,10.23,4.92,0,7.82-3.77,7.89-10.24,0-.49,0-.98,0-1.46,0-52.06,0-104.12-.02-156.18,0-2.09-.03-4.28-.61-6.25-1.09-3.71-3.93-5.65-7.75-5.37-4,.3-6.57,2.64-7.13,6.75-.22,1.6-.11,3.25-.12,4.87,0,26.03,0,52.06,0,78.09Zm-31.53-175.36h-30.57v14.96h30.57v-14.96Z"/>
  <path class="cls-1" d="M162.39,467.1h46.58c.85,7.68,.87,15.05-6.1,19.84-2.77,1.9-6.51,2.84-9.92,3.25-4.48,.54-9.08,.18-13.62,.13-10.52-.12-16.86-6.56-16.94-17.13-.01-1.91,0-3.83,0-6.08Z"/>
  <path class="cls-1" d="M303.04,467.11h46.6c.77,7.3,1.05,14.44-5.36,19.22-2.81,2.1-6.65,3.31-10.19,3.83-4.45,.65-9.07,.2-13.62,.16-11.14-.08-17.38-6.41-17.43-17.64,0-1.75,0-3.5,0-5.58Z"/>
</svg>