<?xml version="1.0" encoding="UTF-8"?>
<svg id="Capa_1" data-name="Capa 1" xmlns="http://www.w3.org/2000/svg" viewBox="0 0 512 512">
  <defs>
    <style>
      .cls-1 {
        fill: #fff;
      }
    </style>
  </defs>
  <path class="cls-1" d="M252.41,489.5c-3.92-3.23-8.42-5.96-11.68-9.75-39.08-45.38-74.95-93.12-104.88-145.07-17.4-30.19-32.63-61.42-42.07-95.17-14.16-50.63-7.61-98.44,21.77-142.03,27.91-41.42,67.31-66.24,117.09-73.17,48.69-6.78,92.59,5.62,130.59,36.54,33.52,27.27,53.47,62.76,60.27,105.6,5.3,33.32-1.08,65-12.61,96.01-15.46,41.54-37.58,79.6-62.1,116.33-23.59,35.33-49.58,68.86-77.4,100.97-3.28,3.78-7.76,6.53-11.68,9.75h-7.31Zm3.82-212.79c47.01-.26,85.04-38.37,85-85.2-.03-47.03-38.74-85.53-85.56-85.11-47.06,.43-85.01,38.68-84.77,85.43,.24,46.94,38.64,85.13,85.32,84.88Z"/>
</svg>